# xmcd
#
# Track frame offsets:
#	150
#	15122
#	25323
#	40643
#	54051
#	74718
#	91451
#	109345
#	122775
#	137302
#	151803
#	170351
#
# Disc length: 2490 seconds
#
# Revision: 1
# Processed by: cddbd v1.5.2PL0 Copyright (c) Steve Scherf et al.
# Submitted via: audiograbber 1.83.01
#
DISCID=8c09b80c
DTITLE=Mike McDonald - Babies Having Babies Mike McDonald
DYEAR=1998
DGENRE=Country
TTITLE0=Love Like That
TTITLE1=Suzanne
TTITLE2=Don´t Go Away
TTITLE3=Too Many Takers
TTITLE4=Lady, I Love You
TTITLE5=Rock And Roll Cowboy´s
TTITLE6=Tear At The Time
TTITLE7=This Time
TTITLE8=Babies Having Babies
TTITLE9=King Of The Wire
TTITLE10=Dreams Never Die
TTITLE11=State Of Our Union
EXTD=
EXTT0=
EXTT1=
EXTT2=
EXTT3=
EXTT4=
EXTT5=
EXTT6=
EXTT7=
EXTT8=
EXTT9=
EXTT10=
EXTT11=
PLAYORDER=
